<svg id="Layer_1" data-name="Layer 1" xmlns="http://www.w3.org/2000/svg" viewBox="0 0 29.63 27.81"><defs><style>.cls-1,.cls-2{fill:#ececec;stroke:#fcfafa;stroke-miterlimit:10}.cls-2{fill:#f0f0f0}</style></defs><title>Untitled-1</title><path class="cls-1" d="M27 2H10.61A1.9 1.9 0 0 0 8.7 3.9v10.64a1.9 1.9 0 0 0 1.9 1.9h11a15 15 0 0 0 2 1.93 15.17 15.17 0 0 0 4.4 2.41 9.78 9.78 0 0 1-2.41-3.37 9.22 9.22 0 0 1-.34-1H27a1.9 1.9 0 0 0 1.9-1.9V3.9A1.9 1.9 0 0 0 27 2z" transform="translate(-.5 -1.5)"/><path class="cls-2" d="M19.32 8.74H2.9A1.9 1.9 0 0 0 1 10.65v10.63a1.9 1.9 0 0 0 1.9 1.9h2.91a9.44 9.44 0 0 1-.48 1.44A9.78 9.78 0 0 1 2.93 28a15.17 15.17 0 0 0 4.33-2.41 15.08 15.08 0 0 0 2.41-2.41h9.65a1.9 1.9 0 0 0 1.9-1.9V10.65a1.9 1.9 0 0 0-1.9-1.91z" transform="translate(-.5 -1.5)"/></svg>