<svg id="Layer_1" data-name="Layer 1" xmlns="http://www.w3.org/2000/svg" viewBox="0 0 29.63 27.81"><defs><style>.cls-1{fill:#ececec;}.cls-1,.cls-2{stroke:#fcfafa;stroke-miterlimit:10;}.cls-2{fill:#f0f0f0;}</style></defs><title>Untitled-1</title><path class="cls-1" d="M27,2H10.61A1.9,1.9,0,0,0,8.7,3.9V14.54a1.9,1.9,0,0,0,1.9,1.9h11a15,15,0,0,0,2,1.93A15.17,15.17,0,0,0,28,20.78a9.78,9.78,0,0,1-2.41-3.37,9.22,9.22,0,0,1-.34-1H27a1.9,1.9,0,0,0,1.9-1.9V3.9A1.9,1.9,0,0,0,27,2Z" transform="translate(-0.5 -1.5)"/><path class="cls-2" d="M19.32,8.74H2.9A1.9,1.9,0,0,0,1,10.65V21.28a1.9,1.9,0,0,0,1.9,1.9H5.81a9.44,9.44,0,0,1-.48,1.44A9.78,9.78,0,0,1,2.93,28a15.17,15.17,0,0,0,4.33-2.41,15.08,15.08,0,0,0,2.41-2.41h9.65a1.9,1.9,0,0,0,1.9-1.9V10.65A1.9,1.9,0,0,0,19.32,8.74Z" transform="translate(-0.5 -1.5)"/></svg>